<mxfile host="app.diagrams.net" modified="2024-05-22T15:33:31.955Z" agent="Mozilla/5.0 (Windows NT 10.0; Win64; x64) AppleWebKit/537.36 (KHTML, like Gecko) Chrome/125.0.0.0 Safari/537.36 Edg/125.0.0.0" version="24.4.6" etag="AsBZhOiMUDijvoKDvQm-" type="github">
  <diagram name="第 1 页" id="m5godhfazE3i8Zrh1O5s">
    <mxGraphModel>
      <root>
        <mxCell id="0" />
        <mxCell id="1" parent="0" />
      </root>
    </mxGraphModel>
  </diagram>
</mxfile>
